<svg width="100" height="100" viewBox="0 0 100 100" fill="none" xmlns="http://www.w3.org/2000/svg">
  <path d="M69 45.5V55C68.9993 57.0999 68.1599 59.1125 66.6601 60.6123C65.1603 62.1121 63.1477 62.9515 61.0478 62.9523H56.9761C56.7136 62.9523 56.462 62.8472 56.2782 62.6602C56.0944 62.4731 55.9928 62.2195 55.9961 61.957V45.5C55.9928 45.2375 56.0944 44.9839 56.2782 44.7968C56.462 44.6098 56.7136 44.5047 56.9761 44.5047H61.0478C63.1477 44.5055 65.1603 45.3449 66.6601 46.8447C68.1599 48.3445 68.9993 50.3571 69 52.457V45.5Z" fill="currentColor"/>
  <path d="M44.0039 45.5V61.957C44.0072 62.2195 43.9056 62.4731 43.7218 62.6602C43.538 62.8472 43.2864 62.9523 43.0239 62.9523H38.9522C36.8523 62.9515 34.8397 62.1121 33.3399 60.6123C31.8401 59.1125 31.0007 57.0999 31 55V45.5V52.457C31.0007 50.3571 31.8401 48.3445 33.3399 46.8447C34.8397 45.3449 36.8523 44.5055 38.9522 44.5047H43.0239C43.2864 44.5047 43.538 44.6098 43.7218 44.7968C43.9056 44.9839 44.0072 45.2375 44.0039 45.5Z" fill="currentColor"/>
  <path d="M50 2C63.2548 2 75.6867 7.00177 84.688 15.812C93.6893 24.6222 98.8406 36.8335 99 49.5V51.5C99 53.2239 98.271 54.8772 96.9708 56.0837C95.6706 57.2901 93.9082 58 92.0625 58C90.2168 58 88.4544 57.2901 87.1542 56.0837C85.854 54.8772 85.125 53.2239 85.125 51.5V49.5C85.125 38.9609 80.6056 28.8145 72.5518 21.2707C64.498 13.7269 53.7348 9.5 42.5 9.5H40.5C38.6543 9.5 36.8919 8.79009 35.5917 7.58363C34.2915 6.37717 33.5625 4.72391 33.5625 3C33.5625 1.27609 34.2915 -0.377165 35.5917 -1.58363C36.8919 -2.79009 38.6543 -3.5 40.5 -3.5H42.5C47.7309 -3.5 52.9204 -2.43728 57.8032 -0.35847C62.686 1.72033 67.1778 4.75083 70.9835 8.55661C74.7893 12.3624 77.8198 16.8541 79.8986 21.7369C81.9774 26.6197 83.0401 31.8092 83.0401 37.0401" stroke="currentColor" stroke-width="3" stroke-linecap="round" stroke-linejoin="round"/>
  <path d="M85.125 49.5V51.5C85.125 53.2239 85.854 54.8772 87.1542 56.0837C88.4544 57.2901 90.2168 58 92.0625 58C93.9082 58 95.6706 57.2901 96.9708 56.0837C98.271 54.8772 99 53.2239 99 51.5V49.5C98.8406 36.8335 93.6893 24.6222 84.688 15.812C75.6867 7.00177 63.2548 2 50 2" stroke="currentColor" stroke-width="3" stroke-linecap="round" stroke-linejoin="round"/>
  <path d="M50 2C36.7452 2 24.3133 7.00177 15.312 15.812C6.31068 24.6222 1.15944 36.8335 1 49.5V51.5C1 53.2239 1.72903 54.8772 3.02922 56.0837C4.32942 57.2901 6.09177 58 7.9375 58C9.78323 58 11.5456 57.2901 12.8458 56.0837C14.146 54.8772 14.875 53.2239 14.875 51.5V49.5C14.875 38.9609 19.3944 28.8145 27.4482 21.2707C35.502 13.7269 46.2652 9.5 57.5 9.5H59.5C61.3457 9.5 63.1081 8.79009 64.4083 7.58363C65.7085 6.37717 66.4375 4.72391 66.4375 3C66.4375 1.27609 65.7085 -0.377165 64.4083 -1.58363C63.1081 -2.79009 61.3457 -3.5 59.5 -3.5H57.5" stroke="currentColor" stroke-width="3" stroke-linecap="round" stroke-linejoin="round"/>
</svg>
