<svg width="100" height="100" viewBox="0 0 100 100" fill="none" xmlns="http://www.w3.org/2000/svg">
  <path d="M83.3333 41.6667C83.3333 47.9167 79.75 53.3333 74.1667 55.8333C73.6667 65.1667 66.0833 72.5 56.6667 72.5C51.9167 72.5 47.5833 70.5833 44.5 67.5C42.0833 68.5 39.3333 69.1667 36.6667 69.1667C28.4167 69.1667 21 63.8333 18.3333 56.5C10.8333 56.3333 5 49.9167 5 41.6667C5 33.5833 10.9167 27.0833 18.6667 26.6667C21.5 17.75 30.0833 11.6667 40 11.6667C49.5 11.6667 57.8333 17.3333 60.8333 25.6667C61.5833 25.5833 62.3333 25.5 63.0833 25.5C74.25 25.5 83.3333 32.6667 83.3333 41.6667Z" stroke="currentColor" stroke-width="3" stroke-linecap="round" stroke-linejoin="round"/>
  <path d="M57.25 63.3334H57C54.9167 63.3334 53.3334 64.9167 53.3334 67C53.3334 69.0834 54.9167 70.6667 57 70.6667H57.25C59.3334 70.6667 60.9167 69.0834 60.9167 67C60.9167 64.9167 59.3334 63.3334 57.25 63.3334Z" stroke="currentColor" stroke-width="3" stroke-linecap="round" stroke-linejoin="round"/>
  <path d="M45.8333 36.6667C45.0833 36.1667 44.0833 36.6667 44.0833 37.5V49.5834C44.0833 50.5 45.0833 50.9167 45.8333 50.4167L56 44.4167C56.6667 43.9167 56.6667 43 56 42.5834L45.8333 36.6667Z" stroke="currentColor" stroke-width="3" stroke-linecap="round" stroke-linejoin="round"/>
</svg>
